<svg xmlns="http://www.w3.org/2000/svg" viewBox="0 0 128 128"><rect width="128" height="128" rx="30" fill="#1565C0"/><g fill="none" stroke="#FFFFFF" stroke-width="2.2" stroke-linecap="round" opacity=".9"><path d="M54 54 L78.0 54.0"/><path d="M54 54 L71.0 71.0"/><path d="M54 54 L54.0 78.0"/><path d="M54 54 L37.0 71.0"/><path d="M54 54 L30.0 54.0"/><path d="M54 54 L37.0 37.0"/><path d="M54 54 L54.0 30.0"/><path d="M54 54 L71.0 37.0"/><path d="M63.0 54.0 L60.4 60.4 L54.0 63.0 L47.6 60.4 L45.0 54.0 L47.6 47.6 L54.0 45.0 L60.4 47.6 Z"/><path d="M70.5 54.0 L65.7 65.7 L54.0 70.5 L42.3 65.7 L37.5 54.0 L42.3 42.3 L54.0 37.5 L65.7 42.3 Z"/></g><circle cx="54" cy="54" r="30" fill="none" stroke="#FFFFFF" stroke-width="10"/><path d="M77 77 L100 100" stroke="#FFFFFF" stroke-width="14" stroke-linecap="round"/><circle cx="60" cy="47" r="4" fill="#FFFFFF"/><path d="M60 47 L60 30" stroke="#FFFFFF" stroke-width="1.6"/></svg>
